<svg width="1440" height="586" viewBox="0 0 1440 586" fill="none" xmlns="http://www.w3.org/2000/svg">
<rect width="1440" height="586" transform="matrix(-1 0 0 1 1440 0)" fill="#548DFF"/>
<mask id="mask0" mask-type="alpha" maskUnits="userSpaceOnUse" x="0" y="0" width="1439" height="586">
<rect width="1439" height="586" transform="matrix(-1 0 0 1 1439 0)" fill="#548DFF"/>
</mask>
<g mask="url(#mask0)">
<path fill-rule="evenodd" clip-rule="evenodd" d="M-729.958 124.24C-738.285 124.24 -742.455 114.173 -736.567 108.285L170.891 -799.174C174.541 -802.824 180.459 -802.824 184.109 -799.174L1091.57 108.284C1097.46 114.173 1093.29 124.24 1084.96 124.24H606.393C598.066 124.24 593.895 134.308 599.784 140.196L949.081 489.493C954.969 495.381 950.799 505.449 942.472 505.449H462.004C453.677 505.449 449.507 515.517 455.395 521.405L773.734 839.744C779.622 845.632 775.452 855.699 767.125 855.699H364.902C356.575 855.699 352.405 865.767 358.293 871.655L610.43 1123.79C616.318 1129.68 612.148 1139.75 603.821 1139.75H266.146C257.819 1139.75 253.649 1149.82 259.537 1155.7L472.083 1368.25C477.971 1374.14 473.801 1384.21 465.474 1384.21H-110.471C-118.798 1384.21 -122.968 1374.14 -117.08 1368.25L95.4666 1155.7C101.355 1149.82 97.1845 1139.75 88.8575 1139.75H-248.07C-256.397 1139.75 -260.567 1129.68 -254.679 1123.79L-2.54195 871.655C3.34613 865.767 -0.824046 855.699 -9.15104 855.699H-412.104C-420.431 855.699 -424.601 845.632 -418.713 839.744L-100.374 521.405C-94.4862 515.517 -98.6564 505.449 -106.983 505.449H-587.454C-595.781 505.449 -599.951 495.381 -594.063 489.493L-244.766 140.196C-238.878 134.308 -243.048 124.24 -251.375 124.24H-729.958Z" fill="#0058C9"/>
</g>
</svg>
